<svg xmlns="http://www.w3.org/2000/svg" xmlns:xlink="http://www.w3.org/1999/xlink" width="500" zoomAndPan="magnify" viewBox="0 0 375 374.999991" height="500" preserveAspectRatio="xMidYMid meet" version="1.2"><defs><clipPath id="dde3e2ac97"><path d="M 10.324219 10.324219 L 364.324219 10.324219 L 364.324219 364.324219 L 10.324219 364.324219 Z M 10.324219 10.324219 "/></clipPath></defs><g id="f1dd959458"><rect x="0" width="375" y="0" height="374.999991" style="fill:#ffffff;fill-opacity:1;stroke:none;"/><rect x="0" width="375" y="0" height="374.999991" style="fill:#ffffff;fill-opacity:1;stroke:none;"/><g clip-rule="nonzero" clip-path="url(#dde3e2ac97)"><path style=" stroke:none;fill-rule:evenodd;fill:#000000;fill-opacity:1;" d="M 290.449219 331.15625 C 261.402344 352.027344 225.785156 364.324219 187.324219 364.324219 C 89.632812 364.324219 10.324219 285.011719 10.324219 187.324219 C 10.324219 160.109375 16.480469 134.320312 27.472656 111.277344 C 21.636719 106.253906 17.9375 98.8125 17.9375 90.515625 C 17.9375 75.40625 30.203125 63.140625 45.3125 63.140625 C 49.957031 63.140625 54.332031 64.300781 58.167969 66.34375 C 63.074219 61.109375 68.296875 56.171875 73.800781 51.5625 C 72.761719 49.039062 72.191406 46.28125 72.191406 43.386719 C 72.191406 31.519531 81.828125 21.882812 93.695312 21.882812 C 99.78125 21.882812 105.28125 24.414062 109.195312 28.484375 C 132.761719 16.859375 159.285156 10.324219 187.324219 10.324219 C 285.011719 10.324219 364.324219 89.632812 364.324219 187.324219 C 364.324219 226.824219 351.355469 263.320312 329.449219 292.785156 C 333.953125 297.664062 336.707031 304.183594 336.707031 311.34375 C 336.707031 326.453125 324.4375 338.71875 309.328125 338.71875 C 302.011719 338.71875 295.363281 335.839844 290.449219 331.15625 Z M 37.507812 116.761719 C 28.164062 136.550781 22.625 158.484375 21.839844 181.613281 L 56.835938 181.613281 C 59.75 114.066406 114.066406 59.75 181.613281 56.835938 L 181.613281 21.839844 C 157.65625 22.652344 134.984375 28.566406 114.648438 38.523438 C 115.011719 40.089844 115.203125 41.714844 115.203125 43.386719 C 115.203125 55.257812 105.566406 64.894531 93.695312 64.894531 C 88.859375 64.894531 84.394531 63.292969 80.800781 60.59375 C 75.925781 64.699219 71.289062 69.078125 66.917969 73.710938 C 70.53125 78.347656 72.6875 84.183594 72.6875 90.515625 C 72.6875 105.625 60.421875 117.890625 45.3125 117.890625 C 42.601562 117.890625 39.984375 117.496094 37.507812 116.761719 Z M 21.839844 193.035156 C 24.851562 281.78125 97.847656 352.902344 187.324219 352.902344 C 223.394531 352.902344 256.789062 341.34375 283.996094 321.730469 C 282.679688 318.527344 281.953125 315.019531 281.953125 311.34375 C 281.953125 305.332031 283.894531 299.773438 287.179688 295.257812 L 275.535156 283.609375 C 252.289062 304.921875 221.3125 317.933594 187.324219 317.933594 C 117.152344 317.933594 59.832031 262.472656 56.835938 193.035156 Z M 320.128906 286.183594 C 339.652344 260.007812 351.625 227.878906 352.808594 193.035156 L 317.808594 193.035156 C 316.441406 224.777344 303.722656 253.597656 283.609375 275.535156 L 295.683594 287.609375 C 299.703125 285.292969 304.363281 283.964844 309.328125 283.964844 C 313.164062 283.964844 316.8125 284.757812 320.128906 286.183594 Z M 352.808594 181.613281 C 351.402344 140.222656 334.773438 102.667969 308.351562 74.371094 L 283.609375 99.113281 C 303.722656 121.050781 316.441406 149.871094 317.808594 181.613281 Z M 300.277344 66.292969 C 271.980469 39.871094 234.425781 23.246094 193.035156 21.839844 L 193.035156 56.835938 C 224.777344 58.207031 253.597656 70.925781 275.535156 91.039062 Z M 187.324219 68.132812 C 121.542969 68.132812 68.132812 121.542969 68.132812 187.324219 C 68.132812 253.105469 121.542969 306.511719 187.324219 306.511719 C 253.105469 306.511719 306.511719 253.105469 306.511719 187.324219 C 306.511719 121.542969 253.105469 68.132812 187.324219 68.132812 Z M 155.371094 173.539062 L 177.738281 173.539062 C 180.894531 173.539062 183.449219 176.097656 183.449219 179.25 L 183.449219 259.921875 C 183.449219 263.074219 180.894531 265.628906 177.738281 265.628906 L 155.371094 265.628906 C 152.21875 265.628906 149.660156 263.074219 149.660156 259.921875 L 149.660156 179.25 C 149.660156 176.097656 152.21875 173.539062 155.371094 173.539062 Z M 161.082031 184.960938 L 161.082031 254.210938 L 172.03125 254.210938 L 172.03125 184.960938 Z M 140.367188 164.175781 C 141.050781 165.980469 141.429688 167.9375 141.429688 169.976562 C 141.429688 179.023438 134.054688 186.378906 125.011719 186.378906 C 115.96875 186.378906 108.597656 179.023438 108.597656 169.976562 C 108.597656 160.9375 115.96875 153.5625 125.011719 153.5625 C 127.851562 153.5625 130.527344 154.292969 132.863281 155.570312 L 151.203125 139.59375 C 150.515625 137.789062 150.140625 135.835938 150.140625 133.796875 C 150.140625 124.75 157.523438 117.375 166.550781 117.375 C 175.59375 117.375 182.972656 124.753906 182.972656 133.796875 C 182.972656 134.367188 182.941406 134.933594 182.882812 135.488281 L 196.824219 142.363281 C 199.769531 139.578125 203.742188 137.867188 208.097656 137.867188 C 210.417969 137.867188 212.625 138.351562 214.625 139.222656 L 234.871094 118.09375 C 233.816406 115.925781 233.226562 113.5 233.226562 110.933594 C 233.226562 101.886719 240.585938 94.511719 249.636719 94.511719 C 258.679688 94.511719 266.058594 101.890625 266.058594 110.933594 C 266.058594 119.980469 258.679688 127.355469 249.636719 127.355469 C 247.316406 127.355469 245.109375 126.875 243.109375 126 L 222.863281 147.132812 C 223.917969 149.296875 224.507812 151.726562 224.507812 154.289062 C 224.507812 163.320312 217.148438 170.699219 208.097656 170.699219 C 199.050781 170.699219 191.675781 163.316406 191.675781 154.289062 C 191.675781 153.71875 191.707031 153.15625 191.761719 152.601562 L 177.8125 145.71875 C 174.867188 148.496094 170.902344 150.207031 166.550781 150.207031 C 163.714844 150.207031 161.039062 149.480469 158.707031 148.199219 Z M 125.011719 174.960938 C 127.761719 174.960938 130.007812 172.726562 130.007812 169.976562 C 130.007812 167.226562 127.765625 164.980469 125.011719 164.980469 C 122.261719 164.980469 120.015625 167.226562 120.015625 169.976562 C 120.015625 172.726562 122.261719 174.960938 125.011719 174.960938 Z M 166.550781 138.789062 C 169.300781 138.789062 171.550781 136.546875 171.550781 133.796875 C 171.550781 131.042969 169.304688 128.796875 166.550781 128.796875 C 163.800781 128.796875 161.558594 131.042969 161.558594 133.796875 C 161.558594 136.542969 163.804688 138.789062 166.550781 138.789062 Z M 208.097656 159.277344 C 210.851562 159.277344 213.085938 157.035156 213.085938 154.289062 C 213.085938 151.535156 210.851562 149.289062 208.097656 149.289062 C 205.34375 149.289062 203.097656 151.535156 203.097656 154.289062 C 203.097656 157.039062 205.34375 159.277344 208.097656 159.277344 Z M 249.636719 115.9375 C 252.390625 115.9375 254.636719 113.691406 254.636719 110.933594 C 254.636719 108.179688 252.390625 105.933594 249.636719 105.933594 C 246.882812 105.933594 244.644531 108.183594 244.644531 110.933594 C 244.644531 113.6875 246.882812 115.9375 249.636719 115.9375 Z M 238.457031 144.1875 L 260.828125 144.1875 C 263.980469 144.1875 266.535156 146.742188 266.535156 149.894531 L 266.535156 259.921875 C 266.535156 263.074219 263.980469 265.628906 260.828125 265.628906 L 238.457031 265.628906 C 235.304688 265.628906 232.75 263.074219 232.75 259.921875 L 232.75 149.894531 C 232.75 146.742188 235.304688 144.1875 238.457031 144.1875 Z M 244.167969 155.605469 L 244.167969 254.210938 L 255.117188 254.210938 L 255.117188 155.605469 Z M 196.90625 188.792969 L 219.277344 188.792969 C 222.429688 188.792969 224.984375 191.347656 224.984375 194.503906 L 224.984375 259.921875 C 224.984375 263.074219 222.429688 265.628906 219.277344 265.628906 L 196.90625 265.628906 C 193.753906 265.628906 191.199219 263.074219 191.199219 259.921875 L 191.199219 194.503906 C 191.199219 191.347656 193.753906 188.792969 196.90625 188.792969 Z M 202.617188 200.210938 L 202.617188 254.210938 L 213.566406 254.210938 L 213.566406 200.210938 Z M 113.820312 211.292969 L 136.203125 211.292969 C 139.355469 211.292969 141.914062 213.847656 141.914062 217 L 141.914062 259.921875 C 141.914062 263.074219 139.355469 265.628906 136.203125 265.628906 L 113.820312 265.628906 C 110.667969 265.628906 108.109375 263.074219 108.109375 259.921875 L 108.109375 217 C 108.109375 213.847656 110.667969 211.292969 113.820312 211.292969 Z M 119.53125 222.710938 L 119.53125 254.210938 L 130.496094 254.210938 L 130.496094 222.710938 Z M 309.328125 295.386719 C 300.523438 295.386719 293.371094 302.535156 293.371094 311.34375 C 293.371094 320.148438 300.523438 327.300781 309.328125 327.300781 C 318.136719 327.300781 325.285156 320.148438 325.285156 311.34375 C 325.285156 302.535156 318.136719 295.386719 309.328125 295.386719 Z M 45.3125 74.558594 C 36.503906 74.558594 29.355469 81.710938 29.355469 90.515625 C 29.355469 99.324219 36.503906 106.472656 45.3125 106.472656 C 54.117188 106.472656 61.269531 99.324219 61.269531 90.515625 C 61.269531 81.710938 54.117188 74.558594 45.3125 74.558594 Z M 93.695312 33.300781 C 88.128906 33.300781 83.609375 37.820312 83.609375 43.386719 C 83.609375 48.953125 88.128906 53.472656 93.695312 53.472656 C 99.261719 53.472656 103.785156 48.953125 103.785156 43.386719 C 103.785156 37.820312 99.261719 33.300781 93.695312 33.300781 Z M 93.695312 33.300781 "/></g></g></svg>