<svg xmlns="http://www.w3.org/2000/svg" xmlns:xlink="http://www.w3.org/1999/xlink" width="500" zoomAndPan="magnify" viewBox="0 0 375 374.999991" height="500" preserveAspectRatio="xMidYMid meet" version="1.2"><g id="9f9b4bc7ce"><rect x="0" width="375" y="0" height="374.999991" style="fill:#ffffff;fill-opacity:1;stroke:none;"/><rect x="0" width="375" y="0" height="374.999991" style="fill:#ffffff;fill-opacity:1;stroke:none;"/><path style=" stroke:none;fill-rule:nonzero;fill:#000000;fill-opacity:1;" d="M 314.601562 124.046875 C 314.425781 123.714844 314.375 123.324219 314.457031 122.953125 C 317.277344 110.453125 311.800781 104.46875 311.566406 104.222656 C 311.34375 103.984375 311.191406 103.675781 311.144531 103.351562 C 308.441406 84.640625 295.136719 76.265625 295.003906 76.183594 C 294.632812 75.957031 294.371094 75.585938 294.28125 75.164062 C 291.625 62.703125 277.328125 55.941406 277.183594 55.875 C 276.875 55.730469 276.621094 55.492188 276.460938 55.191406 C 272.90625 48.664062 267.617188 43.339844 260.730469 39.375 C 255.171875 36.171875 248.558594 33.835938 241.078125 32.429688 C 228.242188 30.019531 217.183594 31.214844 217.074219 31.226562 C 216.90625 31.246094 216.742188 31.238281 216.578125 31.203125 C 205.671875 28.949219 189.917969 26.933594 176.808594 30.148438 C 169.023438 32.054688 165.828125 34.945312 165.796875 34.976562 C 165.503906 35.246094 165.113281 35.402344 164.714844 35.402344 C 154.972656 35.402344 147.679688 38.859375 143.277344 41.757812 C 138.476562 44.921875 135.957031 48.136719 135.929688 48.167969 C 135.703125 48.460938 135.378906 48.667969 135.015625 48.746094 C 128 50.285156 122.535156 53.566406 118.769531 58.5 C 115.949219 62.195312 115.183594 65.492188 115.175781 65.527344 C 115.054688 66.050781 114.679688 66.484375 114.171875 66.671875 C 100.113281 71.820312 102.363281 84.519531 102.46875 85.058594 C 102.574219 85.625 102.367188 86.210938 101.921875 86.582031 C 95.203125 92.148438 99.496094 103.535156 99.539062 103.652344 C 99.648438 103.9375 99.675781 104.25 99.609375 104.550781 C 97.636719 113.839844 106.289062 122.0625 106.378906 122.144531 C 106.652344 122.402344 106.828125 122.753906 106.871094 123.128906 C 106.878906 123.199219 107.789062 130.5 113.789062 135.703125 C 119.890625 140.992188 137.679688 142.324219 137.859375 142.339844 C 138.664062 142.394531 139.296875 143.046875 139.328125 143.855469 C 139.332031 143.886719 139.542969 147.679688 142.226562 151.949219 C 145.828125 157.675781 151.960938 161.539062 160.453125 163.425781 C 181.40625 168.082031 199.269531 161.371094 199.445312 161.300781 C 200.160156 161.027344 200.972656 161.304688 201.371094 161.960938 L 207.113281 171.460938 C 209.121094 174.785156 211.570312 177.824219 214.390625 180.496094 L 217.589844 183.527344 C 221.28125 187.027344 224.355469 191.082031 226.730469 195.582031 L 235.808594 212.785156 L 246.410156 212.785156 L 239.796875 190.464844 C 239.652344 189.988281 239.746094 189.472656 240.042969 189.070312 C 240.339844 188.671875 240.804688 188.433594 241.304688 188.429688 C 241.339844 188.429688 244.753906 188.402344 249.597656 188.089844 C 250.492188 188.035156 251.398438 187.96875 252.300781 187.898438 L 252.417969 187.886719 C 252.863281 187.851562 253.320312 187.8125 253.785156 187.773438 C 254.339844 187.726562 254.902344 187.671875 255.476562 187.617188 C 255.9375 187.570312 256.402344 187.523438 256.875 187.472656 C 257.46875 187.410156 258.070312 187.339844 258.679688 187.269531 C 259.152344 187.210938 259.628906 187.152344 260.109375 187.089844 L 260.324219 187.0625 C 261.328125 186.929688 262.328125 186.785156 263.292969 186.636719 L 263.746094 186.5625 C 264.445312 186.449219 265.136719 186.332031 265.804688 186.210938 L 266.171875 186.144531 C 266.585938 186.066406 267 185.988281 267.410156 185.90625 L 267.820312 185.820312 C 268.773438 185.625 269.707031 185.417969 270.585938 185.203125 L 270.972656 185.105469 C 272.941406 184.609375 274.726562 184.0625 276.273438 183.472656 C 277.917969 182.847656 279.324219 182.167969 280.453125 181.457031 C 283.953125 179.242188 286.808594 175.769531 288.933594 171.125 C 289.308594 170.308594 289.664062 169.445312 289.988281 168.554688 C 290.03125 168.445312 290.070312 168.335938 290.109375 168.226562 C 290.332031 167.601562 290.542969 166.957031 290.734375 166.316406 L 290.808594 166.066406 C 290.871094 165.863281 290.925781 165.664062 290.980469 165.46875 C 291.964844 161.933594 292.199219 159.277344 292.199219 159.25 C 292.242188 158.757812 292.515625 158.3125 292.933594 158.046875 C 293.351562 157.78125 293.871094 157.726562 294.335938 157.898438 C 298.480469 159.445312 302.332031 158.5 305.792969 155.09375 C 308.511719 152.414062 309.933594 149.234375 309.949219 149.203125 C 310.007812 149.070312 310.082031 148.945312 310.175781 148.832031 C 314.601562 143.464844 316.699219 137.679688 316.402344 131.628906 C 316.175781 127.085938 314.617188 124.078125 314.601562 124.046875 Z M 177.597656 151.792969 C 177.597656 152.667969 176.886719 153.378906 176.011719 153.378906 L 161.183594 153.378906 C 160.308594 153.378906 159.601562 152.667969 159.601562 151.792969 L 159.601562 136.960938 C 159.601562 136.085938 160.308594 135.375 161.183594 135.375 L 176.011719 135.375 C 176.886719 135.375 177.597656 136.085938 177.597656 136.960938 Z M 203.808594 151.792969 C 203.808594 152.667969 203.097656 153.378906 202.222656 153.378906 L 187.398438 153.378906 C 186.519531 153.378906 185.8125 152.667969 185.8125 151.792969 L 185.8125 123.972656 C 185.8125 123.097656 186.519531 122.386719 187.398438 122.386719 L 202.222656 122.386719 C 203.097656 122.386719 203.808594 123.097656 203.808594 123.972656 Z M 230.019531 151.792969 C 230.019531 152.667969 229.308594 153.378906 228.433594 153.378906 L 213.609375 153.378906 C 212.730469 153.378906 212.023438 152.667969 212.023438 151.792969 L 212.023438 110.980469 C 212.023438 110.105469 212.730469 109.394531 213.609375 109.394531 L 228.433594 109.394531 C 229.308594 109.394531 230.019531 110.105469 230.019531 110.980469 Z M 217.734375 100.390625 C 217.429688 100.6875 217.027344 100.847656 216.59375 100.839844 C 216.167969 100.828125 215.765625 100.648438 215.476562 100.339844 L 204.617188 88.753906 L 159.574219 121.902344 C 159.289062 122.113281 158.960938 122.210938 158.636719 122.210938 C 158.148438 122.210938 157.667969 121.988281 157.355469 121.566406 C 156.839844 120.859375 156.988281 119.867188 157.695312 119.347656 L 203.871094 85.363281 C 204.519531 84.886719 205.417969 84.972656 205.96875 85.558594 L 216.683594 96.992188 L 247.085938 67.417969 L 234.355469 67.417969 C 233.480469 67.417969 232.769531 66.707031 232.769531 65.832031 C 232.769531 64.957031 233.480469 64.246094 234.355469 64.246094 L 250.988281 64.246094 C 250.992188 64.246094 250.996094 64.246094 251.003906 64.246094 C 251.011719 64.246094 251.019531 64.246094 251.027344 64.25 C 251.125 64.25 251.21875 64.261719 251.3125 64.28125 C 251.3125 64.28125 251.3125 64.28125 251.316406 64.28125 C 251.414062 64.300781 251.511719 64.332031 251.605469 64.371094 C 251.699219 64.410156 251.789062 64.460938 251.875 64.519531 C 251.878906 64.519531 251.882812 64.523438 251.886719 64.523438 C 251.96875 64.582031 252.046875 64.648438 252.117188 64.722656 C 252.121094 64.722656 252.121094 64.722656 252.125 64.726562 C 252.128906 64.730469 252.128906 64.734375 252.132812 64.738281 C 252.199219 64.808594 252.261719 64.886719 252.316406 64.96875 C 252.320312 64.976562 252.328125 64.988281 252.332031 64.996094 C 252.382812 65.074219 252.425781 65.15625 252.457031 65.242188 C 252.464844 65.253906 252.464844 65.265625 252.46875 65.273438 C 252.503906 65.359375 252.527344 65.449219 252.542969 65.539062 C 252.546875 65.550781 252.546875 65.558594 252.550781 65.570312 C 252.5625 65.65625 252.574219 65.742188 252.574219 65.832031 L 252.574219 82.46875 C 252.574219 83.34375 251.863281 84.054688 250.988281 84.054688 C 250.113281 84.054688 249.402344 83.34375 249.402344 82.46875 L 249.402344 69.585938 Z M 256.230469 151.792969 C 256.230469 152.667969 255.519531 153.378906 254.644531 153.378906 L 239.816406 153.378906 C 238.941406 153.378906 238.234375 152.667969 238.234375 151.792969 L 238.234375 97.992188 C 238.234375 97.113281 238.941406 96.40625 239.816406 96.40625 L 254.644531 96.40625 C 255.519531 96.40625 256.230469 97.113281 256.230469 97.992188 Z M 282.441406 151.792969 C 282.441406 152.667969 281.730469 153.378906 280.855469 153.378906 L 266.03125 153.378906 C 265.152344 153.378906 264.445312 152.667969 264.445312 151.792969 L 264.445312 85 C 264.445312 84.125 265.152344 83.414062 266.03125 83.414062 L 280.855469 83.414062 C 281.730469 83.414062 282.441406 84.125 282.441406 85 Z M 282.441406 151.792969 "/><path style=" stroke:none;fill-rule:nonzero;fill:#000000;fill-opacity:1;" d="M 215.191406 112.566406 L 226.847656 112.566406 L 226.847656 150.207031 L 215.191406 150.207031 Z M 215.191406 112.566406 "/><path style=" stroke:none;fill-rule:nonzero;fill:#000000;fill-opacity:1;" d="M 188.980469 125.558594 L 200.636719 125.558594 L 200.636719 150.207031 L 188.980469 150.207031 Z M 188.980469 125.558594 "/><path style=" stroke:none;fill-rule:nonzero;fill:#000000;fill-opacity:1;" d="M 241.402344 99.578125 L 253.058594 99.578125 L 253.058594 150.207031 L 241.402344 150.207031 Z M 241.402344 99.578125 "/><path style=" stroke:none;fill-rule:nonzero;fill:#000000;fill-opacity:1;" d="M 162.769531 138.546875 L 174.425781 138.546875 L 174.425781 150.207031 L 162.769531 150.207031 Z M 162.769531 138.546875 "/><path style=" stroke:none;fill-rule:nonzero;fill:#000000;fill-opacity:1;" d="M 327.464844 77.289062 C 322.351562 63.890625 315.542969 52.15625 307.222656 42.417969 C 299.457031 33.328125 290.105469 25.664062 279.433594 19.644531 C 260.507812 8.96875 236.988281 2.984375 207.535156 1.347656 C 183.914062 0.0351562 161.785156 3.789062 141.769531 12.503906 C 126.78125 19.027344 112.972656 28.320312 100.714844 40.125 C 94.09375 46.503906 88.066406 57.824219 82.792969 73.769531 C 78.300781 87.347656 75.476562 101.09375 74.191406 108.078125 C 73.445312 112.136719 73.496094 116.253906 74.34375 120.320312 L 74.773438 122.378906 C 76.675781 131.523438 74.796875 141.226562 69.613281 149 L 44.238281 187.050781 C 42.886719 189.078125 42.65625 191.53125 43.605469 193.773438 C 44.554688 196.019531 46.472656 197.5625 48.867188 198.003906 L 61.585938 200.351562 C 63.910156 200.78125 65.667969 202.730469 65.851562 205.09375 L 66.402344 212.160156 C 66.546875 214.007812 65.34375 215.660156 63.539062 216.089844 C 63.238281 216.160156 63.050781 216.457031 63.113281 216.761719 L 63.710938 219.582031 C 64.214844 221.964844 65.863281 223.929688 68.121094 224.839844 L 74.148438 227.273438 C 74.800781 227.539062 75.203125 228.199219 75.132812 228.902344 C 75.0625 229.601562 74.539062 230.171875 73.847656 230.300781 L 70.34375 230.960938 C 69.320312 231.152344 68.441406 231.785156 67.933594 232.695312 C 67.273438 233.886719 67.367188 235.367188 68.171875 236.464844 L 72.152344 241.878906 C 74.933594 245.664062 76.113281 250.496094 75.382812 255.136719 L 73.59375 266.527344 C 72.792969 271.636719 74.203125 276.867188 77.464844 280.878906 C 80.730469 284.890625 85.5625 287.339844 90.726562 287.59375 L 132.183594 289.640625 C 135.132812 289.785156 137.863281 291.207031 139.671875 293.539062 C 141.484375 295.871094 142.1875 298.867188 141.597656 301.761719 L 141.148438 303.976562 C 140.003906 309.621094 140.636719 315.386719 142.984375 320.652344 L 146.167969 327.785156 C 147.964844 331.820312 148.859375 336.101562 148.824219 340.519531 L 148.597656 369.816406 C 164.054688 373.234375 179.96875 374.964844 195.921875 374.964844 C 219.414062 374.964844 242.523438 371.253906 264.613281 363.9375 C 285.464844 357.03125 305.105469 347.019531 323.015625 334.167969 C 313.269531 321.378906 300.640625 302.679688 293.710938 283.914062 C 285.535156 261.761719 286.773438 244 297.390625 231.117188 C 315.257812 209.4375 327.679688 184.625 333.316406 159.351562 C 336.316406 145.894531 337.40625 132.28125 336.5625 118.898438 C 335.671875 104.78125 332.609375 90.78125 327.464844 77.289062 Z M 312.75 150.691406 C 312.355469 151.527344 310.773438 154.640625 308.015625 157.351562 C 304.179688 161.132812 299.75 162.527344 295.109375 161.441406 C 294.914062 162.652344 294.582031 164.355469 294.035156 166.320312 C 293.976562 166.527344 293.917969 166.742188 293.851562 166.960938 L 293.769531 167.234375 C 293.5625 167.921875 293.335938 168.617188 293.09375 169.292969 C 293.050781 169.410156 293.007812 169.527344 292.964844 169.648438 C 292.609375 170.617188 292.222656 171.558594 291.816406 172.449219 C 289.429688 177.660156 286.175781 181.589844 282.144531 184.136719 C 280.839844 184.964844 279.242188 185.738281 277.402344 186.4375 C 275.738281 187.070312 273.832031 187.65625 271.742188 188.183594 L 271.34375 188.28125 C 270.421875 188.507812 269.449219 188.726562 268.457031 188.929688 L 268.03125 189.015625 C 267.605469 189.101562 267.179688 189.183594 266.75 189.261719 L 266.371094 189.332031 C 265.683594 189.457031 264.96875 189.578125 264.25 189.695312 L 263.785156 189.769531 C 262.792969 189.925781 261.769531 190.070312 260.738281 190.207031 L 260.515625 190.238281 C 260.027344 190.300781 259.539062 190.359375 259.054688 190.417969 C 258.433594 190.492188 257.820312 190.5625 257.210938 190.625 C 256.730469 190.679688 256.257812 190.726562 255.785156 190.773438 C 255.203125 190.832031 254.625 190.882812 254.0625 190.933594 C 253.589844 190.976562 253.125 191.015625 252.667969 191.050781 L 252.550781 191.058594 C 251.636719 191.132812 250.710938 191.199219 249.800781 191.257812 C 247.136719 191.425781 244.921875 191.515625 243.425781 191.558594 L 250.050781 213.921875 C 250.195312 214.402344 250.101562 214.921875 249.800781 215.320312 C 249.503906 215.722656 249.03125 215.957031 248.53125 215.957031 L 234.855469 215.957031 C 234.265625 215.957031 233.726562 215.632812 233.453125 215.113281 L 223.929688 197.0625 C 221.714844 192.871094 218.851562 189.089844 215.410156 185.832031 L 212.210938 182.796875 C 209.183594 179.929688 206.558594 176.667969 204.402344 173.101562 L 199.324219 164.707031 C 194.773438 166.214844 178.679688 170.726562 159.765625 166.523438 C 148.015625 163.910156 142.226562 157.984375 139.441406 153.472656 C 137.386719 150.144531 136.617188 147.09375 136.332031 145.390625 C 131.90625 144.964844 117.632812 143.230469 111.714844 138.101562 C 105.722656 132.90625 104.152344 126.089844 103.808594 124.0625 C 103.003906 123.246094 101.171875 121.242188 99.496094 118.441406 C 96.65625 113.699219 95.597656 108.835938 96.421875 104.347656 C 95.609375 101.984375 92.417969 91.199219 99.226562 84.738281 C 99.074219 83.292969 98.953125 80.332031 99.90625 76.976562 C 101.097656 72.796875 104.222656 67.214844 112.316406 63.988281 C 112.746094 62.621094 113.824219 59.800781 116.144531 56.714844 C 119.003906 52.921875 124.371094 47.980469 133.796875 45.773438 C 134.710938 44.703125 137.261719 41.945312 141.421875 39.1875 C 146.117188 36.074219 153.835938 32.371094 164.132812 32.238281 C 166.929688 30.03125 181.273438 20.722656 216.976562 28.050781 C 218.773438 27.871094 229.234375 26.992188 241.582031 29.300781 C 249.429688 30.765625 256.390625 33.222656 262.273438 36.605469 C 269.535156 40.777344 275.160156 46.371094 278.996094 53.230469 C 281.664062 54.574219 294.222656 61.480469 297.234375 73.855469 C 299.992188 75.742188 311.460938 84.566406 314.214844 102.4375 C 315.59375 104.132812 320.238281 110.929688 317.667969 123.113281 C 318.195312 124.289062 319.332031 127.253906 319.558594 131.304688 C 319.824219 136.03125 318.851562 143.21875 312.75 150.691406 Z M 312.75 150.691406 "/><path style=" stroke:none;fill-rule:nonzero;fill:#000000;fill-opacity:1;" d="M 267.613281 86.585938 L 279.269531 86.585938 L 279.269531 150.207031 L 267.613281 150.207031 Z M 267.613281 86.585938 "/></g></svg>