<svg xmlns="http://www.w3.org/2000/svg" xmlns:xlink="http://www.w3.org/1999/xlink" width="500" zoomAndPan="magnify" viewBox="0 0 375 374.999991" height="500" preserveAspectRatio="xMidYMid meet" version="1.2"><defs><clipPath id="37be2d4a8d"><path d="M 204 7.8125 L 216 7.8125 L 216 49 L 204 49 Z M 204 7.8125 "/></clipPath><clipPath id="63bfec7d76"><path d="M 19 86 L 301 86 L 301 350.5625 L 19 350.5625 Z M 19 86 "/></clipPath><clipPath id="fb600ab0de"><path d="M 218 223 L 356 223 L 356 350.5625 L 218 350.5625 Z M 218 223 "/></clipPath></defs><g id="8b6a0275d4"><rect x="0" width="375" y="0" height="374.999991" style="fill:#ffffff;fill-opacity:1;stroke:none;"/><rect x="0" width="375" y="0" height="374.999991" style="fill:#ffffff;fill-opacity:1;stroke:none;"/><g clip-rule="nonzero" clip-path="url(#37be2d4a8d)"><path style=" stroke:none;fill-rule:nonzero;fill:#000000;fill-opacity:1;" d="M 209.90625 48.898438 C 213.125 48.898438 215.738281 46.292969 215.738281 43.078125 L 215.738281 13.644531 C 215.738281 10.417969 213.125 7.8125 209.90625 7.8125 C 206.679688 7.8125 204.074219 10.417969 204.074219 13.644531 L 204.074219 43.078125 C 204.074219 46.292969 206.679688 48.898438 209.90625 48.898438 Z M 209.90625 48.898438 "/></g><path style=" stroke:none;fill-rule:nonzero;fill:#000000;fill-opacity:1;" d="M 130.984375 62.609375 C 132.121094 64.160156 133.886719 64.996094 135.6875 64.996094 C 136.882812 64.996094 138.09375 64.621094 139.132812 63.863281 C 141.726562 61.960938 142.289062 58.3125 140.382812 55.71875 L 122.949219 31.988281 C 121.042969 29.394531 117.398438 28.824219 114.796875 30.734375 C 112.195312 32.632812 111.644531 36.28125 113.546875 38.875 Z M 130.984375 62.609375 "/><path style=" stroke:none;fill-rule:nonzero;fill:#000000;fill-opacity:1;" d="M 279.425781 55.71875 C 277.515625 58.3125 278.074219 61.960938 280.675781 63.863281 C 281.714844 64.621094 282.921875 64.996094 284.117188 64.996094 C 285.910156 64.996094 287.6875 64.167969 288.828125 62.609375 L 306.261719 38.875 C 308.171875 36.28125 307.605469 32.632812 305.011719 30.734375 C 302.398438 28.820312 298.757812 29.394531 296.859375 31.988281 "/><path style=" stroke:none;fill-rule:nonzero;fill:#000000;fill-opacity:1;" d="M 135.109375 116.304688 C 135.136719 116.324219 135.164062 116.347656 135.199219 116.382812 L 167.507812 143.636719 C 168.265625 144.269531 168.878906 145.039062 169.550781 145.765625 C 170.03125 145.980469 170.519531 146.171875 170.9375 146.519531 C 173.335938 148.539062 176.40625 149.480469 179.542969 149.242188 C 182.695312 148.96875 185.550781 147.503906 187.566406 145.117188 C 189.746094 142.917969 190.691406 140.335938 190.578125 137.484375 C 190.4375 134.0625 188.789062 130.699219 186.167969 128.5 L 169.792969 114.683594 C 169.777344 114.671875 169.765625 114.671875 169.761719 114.660156 L 146.160156 94.738281 C 141.191406 90.546875 133.726562 91.183594 129.515625 96.164062 C 125.320312 101.128906 125.957031 108.59375 130.933594 112.792969 Z M 135.109375 116.304688 "/><g clip-rule="nonzero" clip-path="url(#63bfec7d76)"><path style=" stroke:none;fill-rule:nonzero;fill:#000000;fill-opacity:1;" d="M 196.34375 122.339844 C 199.851562 126.421875 201.996094 131.550781 202.222656 136.992188 C 202.484375 143.144531 200.320312 148.828125 196.136719 152.984375 C 192.453125 157.390625 186.785156 160.3125 180.523438 160.84375 C 179.847656 160.898438 179.160156 160.933594 178.492188 160.933594 C 177.652344 160.933594 176.828125 160.804688 175.996094 160.71875 C 176 160.816406 176.039062 160.910156 176.046875 161.011719 C 176.3125 167.152344 174.164062 172.847656 170 177.03125 C 165.609375 182.21875 159.214844 184.914062 152.707031 184.980469 C 153.679688 191.425781 152.085938 198.238281 147.570312 203.605469 C 144.300781 207.457031 140.03125 209.925781 135.464844 211.089844 C 136.925781 213.855469 137.847656 216.902344 138.113281 220.117188 C 138.640625 226.371094 136.703125 232.441406 132.671875 237.199219 C 128.660156 241.960938 122.996094 244.878906 116.738281 245.40625 C 116.058594 245.460938 115.378906 245.492188 114.710938 245.492188 C 109.1875 245.492188 103.898438 243.570312 99.628906 239.988281 L 81.480469 224.707031 L 19.203125 280.203125 L 83.378906 350.5625 L 168.773438 268.71875 C 170.140625 267.527344 171.988281 267.03125 173.734375 267.414062 C 185.691406 269.789062 195.765625 271.429688 205.234375 270.769531 C 205.332031 270.757812 205.417969 270.746094 205.515625 270.746094 C 216.269531 269.945312 226.222656 266.144531 237.195312 256.902344 L 296.21875 203.457031 C 296.21875 203.457031 304.105469 196.230469 298.425781 189.828125 C 295.390625 186.394531 291.699219 183.902344 287.621094 182.605469 C 293.828125 174.085938 293.691406 162.089844 286.589844 153.691406 C 283.546875 150.074219 279.558594 147.515625 275.09375 146.261719 C 280.042969 137.925781 279.453125 126.988281 272.851562 119.152344 C 269.207031 114.832031 264.21875 112.046875 258.667969 111.152344 C 261.144531 103.660156 260.488281 94.441406 254.355469 88.652344 C 248.15625 82.820312 238.28125 88.730469 238.28125 88.730469 Z M 196.34375 122.339844 "/></g><g clip-rule="nonzero" clip-path="url(#fb600ab0de)"><path style=" stroke:none;fill-rule:nonzero;fill:#000000;fill-opacity:1;" d="M 244.863281 265.675781 C 235.921875 273.222656 227.429688 277.738281 218.933594 280.167969 L 299.207031 350.335938 L 355.796875 280.25 L 291.792969 223.199219 Z M 244.863281 265.675781 "/></g><path style=" stroke:none;fill-rule:nonzero;fill:#000000;fill-opacity:1;" d="M 172.464844 88.058594 C 169.636719 92.285156 168.875 98.652344 173.015625 102.140625 C 173.023438 102.152344 173.03125 102.164062 173.042969 102.171875 L 187.570312 114.429688 L 211.597656 95.179688 L 189.363281 84.816406 C 179.464844 79.691406 174.253906 85.378906 172.464844 88.058594 Z M 172.464844 88.058594 "/><path style=" stroke:none;fill-rule:nonzero;fill:#000000;fill-opacity:1;" d="M 98.695312 177.828125 L 109.597656 187.015625 L 109.601562 187.015625 C 109.628906 187.039062 109.636719 187.082031 109.664062 187.105469 L 122.019531 197.511719 C 127.003906 201.683594 134.457031 201.035156 138.652344 196.085938 C 142.835938 191.121094 142.203125 183.660156 137.222656 179.457031 L 113.980469 159.828125 C 113.960938 159.816406 113.941406 159.816406 113.917969 159.804688 L 113.890625 159.773438 C 111.5 157.765625 108.429688 156.824219 105.308594 157.074219 C 102.152344 157.335938 99.296875 158.804688 97.273438 161.199219 C 93.089844 166.167969 93.726562 173.625 98.695312 177.828125 Z M 98.695312 177.828125 "/><path style=" stroke:none;fill-rule:nonzero;fill:#000000;fill-opacity:1;" d="M 111.023438 126.667969 C 109.007812 129.070312 108.042969 132.121094 108.308594 135.289062 C 108.574219 138.4375 110.039062 141.28125 112.429688 143.289062 L 121.316406 150.789062 C 121.34375 150.8125 121.367188 150.8125 121.382812 150.832031 L 144.753906 170.558594 C 149.714844 174.738281 157.203125 174.113281 161.414062 169.144531 C 163.578125 166.953125 164.527344 164.359375 164.398438 161.507812 C 164.25 158.085938 162.605469 154.734375 159.988281 152.535156 L 127.691406 125.28125 L 127.683594 125.28125 L 127.628906 125.238281 C 122.636719 121.074219 115.21875 121.714844 111.023438 126.667969 Z M 111.023438 126.667969 "/><path style=" stroke:none;fill-rule:nonzero;fill:#000000;fill-opacity:1;" d="M 86.859375 213.976562 L 107.152344 231.070312 C 109.550781 233.085938 112.566406 234.039062 115.761719 233.789062 C 118.910156 233.519531 121.746094 232.054688 123.761719 229.675781 C 125.796875 227.265625 126.765625 224.226562 126.5 221.070312 C 126.234375 217.914062 124.769531 215.066406 122.378906 213.046875 L 114.527344 206.441406 C 114.515625 206.429688 114.503906 206.429688 114.492188 206.417969 C 114.488281 206.410156 114.488281 206.410156 114.480469 206.398438 L 101.921875 195.816406 C 96.957031 191.769531 89.597656 192.425781 85.4375 197.347656 C 81.25 202.304688 81.878906 209.765625 86.859375 213.976562 Z M 86.859375 213.976562 "/></g></svg>